<svg viewBox="0 0 1920 500" xmlns="http://www.w3.org/2000/svg" preserveAspectRatio="xMidYMid slice">
    <defs>
    <linearGradient id="bgGrad" x1="0" y1="0" x2="1" y2="1">
      <stop offset="0%" stop-color="#1e3c72" />
      <stop offset="50%" stop-color="#315a9a" />
      <stop offset="100%" stop-color="#5a72b8" />
    </linearGradient>
  </defs>
  <rect width="1920" height="500" fill="url(#bgGrad)" />

  <!-- City Skyline with Buildings and Yellow Windows -->
  <g opacity="0.7">
    <!-- Building 1 -->
    <g class="building">
      <rect x="1100" y="250" width="80" height="250" />
      <!-- Windows: 3 columns, 4 rows -->
      <rect x="1110" y="270" width="8" height="12" fill="#ffd700" />
      <rect x="1130" y="270" width="8" height="12" fill="#ffd700" />
      <rect x="1150" y="270" width="8" height="12" fill="#ffd700" />

      <rect x="1110" y="310" width="8" height="12" fill="#ffd700" />
      <rect x="1130" y="310" width="8" height="12" fill="#ffd700" />
      <rect x="1150" y="310" width="8" height="12" fill="#ffd700" />

      <rect x="1110" y="350" width="8" height="12" fill="#ffd700" />
      <rect x="1130" y="350" width="8" height="12" fill="#ffd700" />
      <rect x="1150" y="350" width="8" height="12" fill="#ffd700" />

      <rect x="1110" y="390" width="8" height="12" fill="#ffd700" />
      <rect x="1130" y="390" width="8" height="12" fill="#ffd700" />
      <rect x="1150" y="390" width="8" height="12" fill="#ffd700" />
    </g>

    <!-- Building 2 -->
    <g class="building">
      <rect x="1200" y="200" width="100" height="300" />
      <!-- Windows: 4 columns, 5 rows -->
      <rect x="1210" y="220" width="10" height="12" fill="#ffd700" />
      <rect x="1235" y="220" width="10" height="12" fill="#ffd700" />
      <rect x="1260" y="220" width="10" height="12" fill="#ffd700" />
      <rect x="1285" y="220" width="10" height="12" fill="#ffd700" />

      <rect x="1210" y="260" width="10" height="12" fill="#ffd700" />
      <rect x="1235" y="260" width="10" height="12" fill="#ffd700" />
      <rect x="1260" y="260" width="10" height="12" fill="#ffd700" />
      <rect x="1285" y="260" width="10" height="12" fill="#ffd700" />

      <rect x="1210" y="300" width="10" height="12" fill="#ffd700" />
      <rect x="1235" y="300" width="10" height="12" fill="#ffd700" />
      <rect x="1260" y="300" width="10" height="12" fill="#ffd700" />
      <rect x="1285" y="300" width="10" height="12" fill="#ffd700" />

      <rect x="1210" y="340" width="10" height="12" fill="#ffd700" />
      <rect x="1235" y="340" width="10" height="12" fill="#ffd700" />
      <rect x="1260" y="340" width="10" height="12" fill="#ffd700" />
      <rect x="1285" y="340" width="10" height="12" fill="#ffd700" />

      <rect x="1210" y="380" width="10" height="12" fill="#ffd700" />
      <rect x="1235" y="380" width="10" height="12" fill="#ffd700" />
      <rect x="1260" y="380" width="10" height="12" fill="#ffd700" />
      <rect x="1285" y="380" width="10" height="12" fill="#ffd700" />
    </g>

    <!-- Building 3 -->
    <g class="building">
      <rect x="1350" y="280" width="70" height="220" />
      <!-- Windows: 2 columns, 4 rows -->
      <rect x="1360" y="300" width="8" height="10" fill="#ffd700" />
      <rect x="1360" y="320" width="8" height="10" fill="#ffd700" />
      <rect x="1360" y="340" width="8" height="10" fill="#ffd700" />
      <rect x="1360" y="360" width="8" height="10" fill="#ffd700" />

      <rect x="1390" y="300" width="8" height="10" fill="#ffd700" />
      <rect x="1390" y="320" width="8" height="10" fill="#ffd700" />
      <rect x="1390" y="340" width="8" height="10" fill="#ffd700" />
      <rect x="1390" y="360" width="8" height="10" fill="#ffd700" />
    </g>

    <!-- Building 4 -->
    <g class="building">
      <rect x="1450" y="180" width="120" height="320" />
      <!-- Windows: 3 columns, 5 rows -->
      <rect x="1465" y="200" width="10" height="12" fill="#ffd700" />
      <rect x="1490" y="200" width="10" height="12" fill="#ffd700" />
      <rect x="1515" y="200" width="10" height="12" fill="#ffd700" />

      <rect x="1465" y="230" width="10" height="12" fill="#ffd700" />
      <rect x="1490" y="230" width="10" height="12" fill="#ffd700" />
      <rect x="1515" y="230" width="10" height="12" fill="#ffd700" />

      <rect x="1465" y="260" width="10" height="12" fill="#ffd700" />
      <rect x="1490" y="260" width="10" height="12" fill="#ffd700" />
      <rect x="1515" y="260" width="10" height="12" fill="#ffd700" />

      <rect x="1465" y="290" width="10" height="12" fill="#ffd700" />
      <rect x="1490" y="290" width="10" height="12" fill="#ffd700" />
      <rect x="1515" y="290" width="10" height="12" fill="#ffd700" />

      <rect x="1465" y="320" width="10" height="12" fill="#ffd700" />
      <rect x="1490" y="320" width="10" height="12" fill="#ffd700" />
      <rect x="1515" y="320" width="10" height="12" fill="#ffd700" />
    </g>

    <!-- Building 5 -->
    <g class="building">
      <rect x="1600" y="230" width="90" height="270" />
      <!-- Windows: 2 columns, 8 rows -->
      <rect x="1610" y="250" width="8" height="10" fill="#ffd700" />
      <rect x="1630" y="250" width="8" height="10" fill="#ffd700" />

      <rect x="1610" y="270" width="8" height="10" fill="#ffd700" />
      <rect x="1630" y="270" width="8" height="10" fill="#ffd700" />

      <rect x="1610" y="290" width="8" height="10" fill="#ffd700" />
      <rect x="1630" y="290" width="8" height="10" fill="#ffd700" />

      <rect x="1610" y="310" width="8" height="10" fill="#ffd700" />
      <rect x="1630" y="310" width="8" height="10" fill="#ffd700" />

      <rect x="1610" y="330" width="8" height="10" fill="#ffd700" />
      <rect x="1630" y="330" width="8" height="10" fill="#ffd700" />

      <rect x="1610" y="350" width="8" height="10" fill="#ffd700" />
      <rect x="1630" y="350" width="8" height="10" fill="#ffd700" />

      <rect x="1610" y="370" width="8" height="10" fill="#ffd700" />
      <rect x="1630" y="370" width="8" height="10" fill="#ffd700" />

      <rect x="1610" y="390" width="8" height="10" fill="#ffd700" />
      <rect x="1630" y="390" width="8" height="10" fill="#ffd700" />
    </g>

    <!-- Additional buildings (6–14) can be added similarly with corresponding window patterns -->

  </g>
  <g>
   <text x="60" y="200" font-family="Times New-Roman" font-size="70" font-weight="500" fill="white" opacity="0.9">Eiendommelig Boligformidling A/S</text>
  </g>
  <!-- Semi-transparent overlay for text readability -->
  <rect width="1920" height="500" fill="#000" opacity="0.1" />

</svg>
